<svg height="512pt" viewBox="-16 0 512 512" width="512pt" xmlns="http://www.w3.org/2000/svg"><path d="m135 0h-60c-24.902344 0-45 20.097656-45 45v31c0 8.398438 6.597656 15 15 15h120c8.402344 0 15-6.601562 15-15v-31c0-24.902344-20.097656-45-45-45zm0 0" fill="#deecf1"/><path d="m165 91h-60v-91h30c24.902344 0 45 20.097656 45 45v31c0 8.398438-6.597656 15-15 15zm0 0" fill="#a8d3d8"/><path d="m195 196v-60h255c16.539062 0 30 13.460938 30 30s-13.460938 30-30 30zm0 0" fill="#a8d3d8"/><path d="m366.210938 409.207031c-5.667969 5.671875-13.199219 8.789063-21.210938 8.789063s-15.542969-3.117188-21.210938-8.789063l-128.789062-128.789062v-84.84375l171.210938 171.210937c11.6875 11.691406 11.6875 30.734375 0 42.421875zm0 0" fill="#8ebac5"/><path d="m210 271v226c0 8.398438-6.597656 15-15 15h-180c-8.402344 0-15-6.601562-15-15v-226l38.402344-30h139.796875zm0 0" fill="#4a696f"/><path d="m210 271v226c0 8.398438-6.597656 15-15 15h-90v-271h73.199219zm0 0" fill="#384949"/><path d="m195 61h-180c-8.402344 0-15 6.597656-15 15v195h210v-195c0-8.402344-6.597656-15-15-15zm0 0" fill="#73bcff"/><path d="m210 76v195h-105v-210h90c8.402344 0 15 6.597656 15 15zm0 0" fill="#0095ff"/><path d="m135 121h-60c-8.402344 0-15 6.597656-15 15v60c0 8.398438 6.597656 15 15 15h60c8.402344 0 15-6.601562 15-15v-60c0-8.402344-6.597656-15-15-15zm0 0" fill="#4a696f"/><path d="m135 211h-30v-90h30c8.402344 0 15 6.597656 15 15v60c0 8.398438-6.597656 15-15 15zm0 0" fill="#384949"/></svg>