<svg height="512pt" viewBox="-16 0 512 512" width="512pt" xmlns="http://www.w3.org/2000/svg"><path d="m75 210h60c8.285156 0 15-6.714844 15-15v-60c0-8.285156-6.714844-15-15-15h-60c-8.285156 0-15 6.714844-15 15v60c0 8.285156 6.714844 15 15 15zm15-60h30v30h-30zm0 0"/><path d="m435 120h-225v-45c0-8.285156-6.714844-15-15-15h-15v-15c0-24.8125-20.1875-45-45-45h-60c-24.8125 0-45 20.1875-45 45v15h-15c-8.285156 0-15 6.714844-15 15v422c0 8.285156 6.714844 15 15 15h180c8.285156 0 15-6.714844 15-15v-181.363281l88.183594 88.179687c17.589844 17.589844 46.042968 17.59375 63.632812 0 17.589844-17.585937 17.59375-46.042968 0-63.632812l-130.179687-130.183594h203.363281c24.8125 0 45-20.1875 45-45s-20.1875-45-45-45zm-375-75c0-8.269531 6.730469-15 15-15h60c8.269531 0 15 6.730469 15 15v15h-90zm120 45v150h-150v-150zm-150 392v-212h150v212zm310.605469-99.394531c-5.867188 5.863281-15.34375 5.863281-21.210938 0l-109.394531-109.394531v-42.421876l130.605469 130.605469c5.84375 5.847657 5.84375 15.363281 0 21.210938zm94.394531-202.605469h-225v-30h225c8.269531 0 15 6.730469 15 15s-6.730469 15-15 15zm0 0"/></svg>